# xmcd
#
# Track frame offsets:
#	150
#	4317
#	24538
#	48981
#	63794
#	86454
#	98041
#	113320
#	114527
#	137182
#	163884
#
# Disc length: 2267 seconds
#
# Revision: 0
# Processed by: cddbd v1.5.2PL0 Copyright (c) Steve Scherf et al.
# Submitted via: audiograbber 1.83.01
#
DISCID=8308d90b
DTITLE=Casiokids - Fück Midi!
DYEAR=2006
DGENRE=Electronica
TTITLE0=Tante Gerd
TTITLE1=Il Fait Beau
TTITLE2=Bagamoyo
TTITLE3=Postcard From Congo
TTITLE4=Walking On Water
TTITLE5=Shortcut '99
TTITLE6=Den Trojanske Hesten
TTITLE7=Bjelge
TTITLE8=Last Dance of the Bolsjevik
TTITLE9=N'Dur
TTITLE10=110% Aere
EXTD=
EXTT0=
EXTT1=
EXTT2=
EXTT3=
EXTT4=
EXTT5=
EXTT6=
EXTT7=
EXTT8=
EXTT9=
EXTT10=
PLAYORDER=
